<?xml version="1.0" standalone="no"?><!DOCTYPE svg PUBLIC "-//W3C//DTD SVG 1.1//EN" "http://www.w3.org/Graphics/SVG/1.1/DTD/svg11.dtd"><svg t="1732887488429" class="icon" viewBox="0 0 1024 1024" version="1.1" xmlns="http://www.w3.org/2000/svg" p-id="11511" xmlns:xlink="http://www.w3.org/1999/xlink" width="200" height="200"><path d="M509.952 503.808m-360.448 0a360.448 360.448 0 1 0 720.896 0 360.448 360.448 0 1 0-720.896 0Z" p-id="11512" fill="#ca2121"></path><path d="M935.936 430.08c-30.72-176.128-169.984-317.44-346.112-350.208h-4.096l6.144-40.96h6.144c192.512 36.864 346.112 190.464 378.88 382.976l-40.96 8.192zM83.968 430.08l-40.96-6.144c34.816-194.56 188.416-350.208 382.976-385.024l6.144 40.96C256 110.592 114.688 249.856 83.968 430.08zM428.032 970.752c-194.56-34.816-350.208-188.416-382.976-385.024l40.96-6.144c30.72 178.176 172.032 319.488 350.208 350.208l-8.192 40.96zM591.872 970.752l-6.144-40.96c178.176-30.72 319.488-172.032 352.256-350.208l40.96 6.144c-36.864 196.608-190.464 352.256-387.072 385.024z" p-id="11513" fill="#ca2121"></path></svg>